<mxfile host="app.diagrams.net" modified="2023-04-12T01:16:15.673Z" agent="Mozilla/5.0 (Windows NT 10.0; Win64; x64) AppleWebKit/537.36 (KHTML, like Gecko) Chrome/112.0.0.0 Safari/537.36" etag="l7XVU5sBdqU5Odil4huD" version="21.1.6" type="github">
  <diagram id="R2lEEEUBdFMjLlhIrx00" name="Page-1">
    <mxGraphModel dx="2074" dy="1067" grid="1" gridSize="10" guides="1" tooltips="1" connect="1" arrows="1" fold="1" page="1" pageScale="1" pageWidth="1000" pageHeight="500" math="0" shadow="0" extFonts="Permanent Marker^https://fonts.googleapis.com/css?family=Permanent+Marker">
      <root>
        <mxCell id="0" />
        <mxCell id="1" parent="0" />
        <mxCell id="9Ze-1JtvhAS4ILb-z19_-11" style="edgeStyle=orthogonalEdgeStyle;rounded=0;orthogonalLoop=1;jettySize=auto;html=1;exitX=1;exitY=0.5;exitDx=0;exitDy=0;endArrow=none;endFill=0;" parent="1" source="9Ze-1JtvhAS4ILb-z19_-1" target="9Ze-1JtvhAS4ILb-z19_-8" edge="1">
          <mxGeometry relative="1" as="geometry" />
        </mxCell>
        <mxCell id="9Ze-1JtvhAS4ILb-z19_-33" style="edgeStyle=orthogonalEdgeStyle;rounded=0;orthogonalLoop=1;jettySize=auto;html=1;exitX=0.25;exitY=0;exitDx=0;exitDy=0;entryX=0.5;entryY=1;entryDx=0;entryDy=0;endArrow=none;endFill=0;" parent="1" source="9Ze-1JtvhAS4ILb-z19_-1" target="9Ze-1JtvhAS4ILb-z19_-4" edge="1">
          <mxGeometry relative="1" as="geometry" />
        </mxCell>
        <mxCell id="9Ze-1JtvhAS4ILb-z19_-34" style="edgeStyle=orthogonalEdgeStyle;rounded=0;orthogonalLoop=1;jettySize=auto;html=1;exitX=0;exitY=0.5;exitDx=0;exitDy=0;endArrow=none;endFill=0;" parent="1" source="9Ze-1JtvhAS4ILb-z19_-1" target="9Ze-1JtvhAS4ILb-z19_-5" edge="1">
          <mxGeometry relative="1" as="geometry" />
        </mxCell>
        <mxCell id="9Ze-1JtvhAS4ILb-z19_-36" style="edgeStyle=orthogonalEdgeStyle;rounded=0;orthogonalLoop=1;jettySize=auto;html=1;exitX=0.25;exitY=1;exitDx=0;exitDy=0;entryX=1.005;entryY=0.348;entryDx=0;entryDy=0;entryPerimeter=0;endArrow=none;endFill=0;" parent="1" source="9Ze-1JtvhAS4ILb-z19_-1" target="9Ze-1JtvhAS4ILb-z19_-6" edge="1">
          <mxGeometry relative="1" as="geometry" />
        </mxCell>
        <mxCell id="9Ze-1JtvhAS4ILb-z19_-1" value="Student" style="rounded=0;whiteSpace=wrap;html=1;fillColor=#f0a30a;fontColor=#000000;strokeColor=#BD7000;" parent="1" vertex="1">
          <mxGeometry x="341" y="90" width="120" height="60" as="geometry" />
        </mxCell>
        <mxCell id="9Ze-1JtvhAS4ILb-z19_-2" value="Course" style="rounded=0;whiteSpace=wrap;html=1;" parent="1" vertex="1">
          <mxGeometry x="670" y="90" width="120" height="60" as="geometry" />
        </mxCell>
        <mxCell id="9Ze-1JtvhAS4ILb-z19_-16" style="edgeStyle=orthogonalEdgeStyle;rounded=0;orthogonalLoop=1;jettySize=auto;html=1;endArrow=none;endFill=0;" parent="1" source="9Ze-1JtvhAS4ILb-z19_-3" target="9Ze-1JtvhAS4ILb-z19_-15" edge="1">
          <mxGeometry relative="1" as="geometry" />
        </mxCell>
        <mxCell id="9Ze-1JtvhAS4ILb-z19_-42" style="edgeStyle=orthogonalEdgeStyle;rounded=0;orthogonalLoop=1;jettySize=auto;html=1;exitX=0.25;exitY=1;exitDx=0;exitDy=0;endArrow=none;endFill=0;" parent="1" source="9Ze-1JtvhAS4ILb-z19_-3" target="9Ze-1JtvhAS4ILb-z19_-30" edge="1">
          <mxGeometry relative="1" as="geometry" />
        </mxCell>
        <mxCell id="9Ze-1JtvhAS4ILb-z19_-43" style="edgeStyle=orthogonalEdgeStyle;rounded=0;orthogonalLoop=1;jettySize=auto;html=1;exitX=0.75;exitY=1;exitDx=0;exitDy=0;endArrow=none;endFill=0;" parent="1" source="9Ze-1JtvhAS4ILb-z19_-3" target="9Ze-1JtvhAS4ILb-z19_-31" edge="1">
          <mxGeometry relative="1" as="geometry" />
        </mxCell>
        <mxCell id="9Ze-1JtvhAS4ILb-z19_-3" value="Professor" style="rounded=0;whiteSpace=wrap;html=1;" parent="1" vertex="1">
          <mxGeometry x="510.99" y="215" width="120" height="60" as="geometry" />
        </mxCell>
        <mxCell id="9Ze-1JtvhAS4ILb-z19_-4" value="Tuition" style="ellipse;whiteSpace=wrap;html=1;fillColor=#6a00ff;fontColor=#ffffff;strokeColor=#3700CC;" parent="1" vertex="1">
          <mxGeometry x="310" y="20" width="91" height="50" as="geometry" />
        </mxCell>
        <mxCell id="9Ze-1JtvhAS4ILb-z19_-5" value="GPA" style="ellipse;whiteSpace=wrap;html=1;fillColor=#6a00ff;fontColor=#ffffff;strokeColor=#3700CC;" parent="1" vertex="1">
          <mxGeometry x="232" y="95" width="81" height="50" as="geometry" />
        </mxCell>
        <mxCell id="9Ze-1JtvhAS4ILb-z19_-6" value="Major" style="ellipse;whiteSpace=wrap;html=1;fillColor=#6a00ff;fontColor=#ffffff;strokeColor=#3700CC;" parent="1" vertex="1">
          <mxGeometry x="250" y="160" width="81" height="50" as="geometry" />
        </mxCell>
        <mxCell id="9Ze-1JtvhAS4ILb-z19_-12" style="edgeStyle=orthogonalEdgeStyle;rounded=0;orthogonalLoop=1;jettySize=auto;html=1;entryX=0;entryY=0.5;entryDx=0;entryDy=0;endArrow=none;endFill=0;" parent="1" source="9Ze-1JtvhAS4ILb-z19_-8" target="9Ze-1JtvhAS4ILb-z19_-2" edge="1">
          <mxGeometry relative="1" as="geometry" />
        </mxCell>
        <mxCell id="9Ze-1JtvhAS4ILb-z19_-8" value="Participates" style="html=1;whiteSpace=wrap;aspect=fixed;shape=isoRectangle;fillColor=#a20025;fontColor=#ffffff;strokeColor=#6F0000;" parent="1" vertex="1">
          <mxGeometry x="510.99" y="90" width="100.01" height="60" as="geometry" />
        </mxCell>
        <mxCell id="9Ze-1JtvhAS4ILb-z19_-17" style="edgeStyle=orthogonalEdgeStyle;rounded=0;orthogonalLoop=1;jettySize=auto;html=1;entryX=0.5;entryY=1;entryDx=0;entryDy=0;endArrow=none;endFill=0;" parent="1" source="9Ze-1JtvhAS4ILb-z19_-15" target="9Ze-1JtvhAS4ILb-z19_-2" edge="1">
          <mxGeometry relative="1" as="geometry" />
        </mxCell>
        <mxCell id="9Ze-1JtvhAS4ILb-z19_-15" value="Instructs" style="html=1;whiteSpace=wrap;aspect=fixed;shape=isoRectangle;fillColor=#a20025;fontColor=#ffffff;strokeColor=#6F0000;" parent="1" vertex="1">
          <mxGeometry x="671" y="210" width="116.67" height="70" as="geometry" />
        </mxCell>
        <mxCell id="9Ze-1JtvhAS4ILb-z19_-22" style="edgeStyle=orthogonalEdgeStyle;rounded=0;orthogonalLoop=1;jettySize=auto;html=1;endArrow=none;endFill=0;" parent="1" source="9Ze-1JtvhAS4ILb-z19_-20" target="9Ze-1JtvhAS4ILb-z19_-3" edge="1">
          <mxGeometry relative="1" as="geometry" />
        </mxCell>
        <mxCell id="9Ze-1JtvhAS4ILb-z19_-23" style="edgeStyle=orthogonalEdgeStyle;rounded=0;orthogonalLoop=1;jettySize=auto;html=1;entryX=0.5;entryY=1;entryDx=0;entryDy=0;endArrow=none;endFill=0;" parent="1" source="9Ze-1JtvhAS4ILb-z19_-20" target="9Ze-1JtvhAS4ILb-z19_-1" edge="1">
          <mxGeometry relative="1" as="geometry" />
        </mxCell>
        <mxCell id="9Ze-1JtvhAS4ILb-z19_-20" value="Advises" style="html=1;whiteSpace=wrap;aspect=fixed;shape=isoRectangle;fillColor=#a20025;fontColor=#ffffff;strokeColor=#6F0000;" parent="1" vertex="1">
          <mxGeometry x="343.33000000000004" y="210" width="116.67" height="70" as="geometry" />
        </mxCell>
        <mxCell id="9Ze-1JtvhAS4ILb-z19_-38" style="edgeStyle=orthogonalEdgeStyle;rounded=0;orthogonalLoop=1;jettySize=auto;html=1;exitX=0;exitY=0.5;exitDx=0;exitDy=0;endArrow=none;endFill=0;" parent="1" source="9Ze-1JtvhAS4ILb-z19_-24" target="9Ze-1JtvhAS4ILb-z19_-25" edge="1">
          <mxGeometry relative="1" as="geometry" />
        </mxCell>
        <mxCell id="9Ze-1JtvhAS4ILb-z19_-39" style="edgeStyle=orthogonalEdgeStyle;rounded=0;orthogonalLoop=1;jettySize=auto;html=1;exitX=0.5;exitY=1;exitDx=0;exitDy=0;endArrow=none;endFill=0;" parent="1" source="9Ze-1JtvhAS4ILb-z19_-24" target="9Ze-1JtvhAS4ILb-z19_-28" edge="1">
          <mxGeometry relative="1" as="geometry" />
        </mxCell>
        <mxCell id="9Ze-1JtvhAS4ILb-z19_-40" style="edgeStyle=orthogonalEdgeStyle;rounded=0;orthogonalLoop=1;jettySize=auto;html=1;exitX=1;exitY=1;exitDx=0;exitDy=0;entryX=0.5;entryY=0;entryDx=0;entryDy=0;endArrow=none;endFill=0;" parent="1" source="9Ze-1JtvhAS4ILb-z19_-24" target="9Ze-1JtvhAS4ILb-z19_-26" edge="1">
          <mxGeometry relative="1" as="geometry" />
        </mxCell>
        <mxCell id="9Ze-1JtvhAS4ILb-z19_-41" style="edgeStyle=orthogonalEdgeStyle;rounded=0;orthogonalLoop=1;jettySize=auto;html=1;exitX=1;exitY=0.5;exitDx=0;exitDy=0;endArrow=none;endFill=0;" parent="1" source="9Ze-1JtvhAS4ILb-z19_-24" target="9Ze-1JtvhAS4ILb-z19_-27" edge="1">
          <mxGeometry relative="1" as="geometry" />
        </mxCell>
        <mxCell id="9Ze-1JtvhAS4ILb-z19_-24" value="TA" style="rounded=0;whiteSpace=wrap;html=1;fillColor=#f0a30a;fontColor=#000000;strokeColor=#BD7000;" parent="1" vertex="1">
          <mxGeometry x="160" y="310" width="120" height="60" as="geometry" />
        </mxCell>
        <mxCell id="9Ze-1JtvhAS4ILb-z19_-25" value="Tuition" style="ellipse;whiteSpace=wrap;html=1;fillColor=#6a00ff;fontColor=#ffffff;strokeColor=#3700CC;" parent="1" vertex="1">
          <mxGeometry x="81" y="380" width="79" height="50" as="geometry" />
        </mxCell>
        <mxCell id="9Ze-1JtvhAS4ILb-z19_-26" value="GPA" style="ellipse;whiteSpace=wrap;html=1;fillColor=#6a00ff;fontColor=#ffffff;strokeColor=#3700CC;" parent="1" vertex="1">
          <mxGeometry x="271.33" y="391" width="80" height="50" as="geometry" />
        </mxCell>
        <mxCell id="9Ze-1JtvhAS4ILb-z19_-27" value="Major" style="ellipse;whiteSpace=wrap;html=1;fillColor=#6a00ff;fontColor=#ffffff;strokeColor=#3700CC;" parent="1" vertex="1">
          <mxGeometry x="311" y="316" width="80" height="50" as="geometry" />
        </mxCell>
        <mxCell id="9Ze-1JtvhAS4ILb-z19_-28" value="Wage" style="ellipse;whiteSpace=wrap;html=1;fillColor=#6a00ff;fontColor=#ffffff;strokeColor=#3700CC;" parent="1" vertex="1">
          <mxGeometry x="180" y="400" width="80" height="50" as="geometry" />
        </mxCell>
        <mxCell id="9Ze-1JtvhAS4ILb-z19_-46" style="edgeStyle=orthogonalEdgeStyle;rounded=0;orthogonalLoop=1;jettySize=auto;html=1;endArrow=none;endFill=0;" parent="1" source="9Ze-1JtvhAS4ILb-z19_-29" target="9Ze-1JtvhAS4ILb-z19_-2" edge="1">
          <mxGeometry relative="1" as="geometry" />
        </mxCell>
        <mxCell id="9Ze-1JtvhAS4ILb-z19_-29" value="Enrollment" style="ellipse;whiteSpace=wrap;html=1;fillColor=#6a00ff;fontColor=#ffffff;strokeColor=#3700CC;" parent="1" vertex="1">
          <mxGeometry x="820" y="90" width="100" height="60" as="geometry" />
        </mxCell>
        <mxCell id="9Ze-1JtvhAS4ILb-z19_-30" value="Department" style="ellipse;whiteSpace=wrap;html=1;fillColor=#6a00ff;fontColor=#ffffff;strokeColor=#3700CC;" parent="1" vertex="1">
          <mxGeometry x="470" y="300" width="90" height="50" as="geometry" />
        </mxCell>
        <mxCell id="9Ze-1JtvhAS4ILb-z19_-31" value="Salary&lt;br&gt;" style="ellipse;whiteSpace=wrap;html=1;fillColor=#6a00ff;fontColor=#ffffff;strokeColor=#3700CC;" parent="1" vertex="1">
          <mxGeometry x="582" y="300" width="89" height="50" as="geometry" />
        </mxCell>
        <mxCell id="9Ze-1JtvhAS4ILb-z19_-47" value="Course" style="rounded=0;whiteSpace=wrap;html=1;fillColor=#f0a30a;fontColor=#000000;strokeColor=#BD7000;" parent="1" vertex="1">
          <mxGeometry x="670" y="90" width="120" height="60" as="geometry" />
        </mxCell>
        <mxCell id="9Ze-1JtvhAS4ILb-z19_-48" value="Professor" style="rounded=0;whiteSpace=wrap;html=1;fillColor=#f0a30a;fontColor=#000000;strokeColor=#BD7000;" parent="1" vertex="1">
          <mxGeometry x="510.99" y="215" width="120" height="60" as="geometry" />
        </mxCell>
      </root>
    </mxGraphModel>
  </diagram>
</mxfile>
